<svg height="658" viewBox="11 15.3 882.5 213.7" width="2500" xmlns="http://www.w3.org/2000/svg"><g fill="#253085"><path d="m869.5 18.4c-6 3.4-9.4 9-9.5 15.2 0 3.4.5 5.6 1.5 6.4.8.7 1.5 1.8 1.5 2.5 0 2.3 6.7 6.5 10.2 6.5 3.1-.1 3.2-.1 1.4-1.5-1.1-.8-2.6-1.5-3.3-1.5-3 0-8.3-8.1-8.3-12.8 0-3.9 3.1-9.1 6.9-12 3.7-2.7 12.5-3.1 13.5-.7.3.8 1.1 1.5 1.8 1.5 3.3.1 5.3 6.2 4.9 14.6-.1 3.7-4.5 8.8-8.3 9.8-3.8.9-3.5 2.6.5 2.6 2.9-.1 7.7-2.8 7.7-4.6 0-.4.7-1.2 1.7-1.9 1.2-.9 1.6-2.9 1.7-8.8.1-7.4-.1-7.8-3.4-11.2-1.9-1.9-3.9-3.5-4.6-3.5-.6 0-1.7-.7-2.4-1.5-1.9-2.2-8.8-1.8-13.5.9zm-856.8 5.4c-1.6 1.7-1.7 10.2-1.7 101.9 0 95.6.1 100.1 1.8 101.6 1.7 1.6 31.5 1.7 408.5 1.7h406.6l1.5-2.2c1.4-2 1.6-13.3 1.6-101.3s-.2-99.3-1.6-101.3l-1.5-2.2h-406.8c-392.8 0-406.8.1-408.4 1.8zm236.6 15.5c10.9 3.7 23.7 12 29 19 1.5 2 3.2 4.1 3.9 4.9 2.3 2.5 5.4 8.2 9.3 17.3 2 4.6 3.5 14 3.5 21.9 0 25.3-14.1 48-36.6 59.1-5 2.5-9.9 4.5-10.7 4.5-.9 0-4.4.7-7.8 1.6-10.2 2.6-27.2.4-37.8-5-9.7-4.8-9.1-6.6-9.1 25.3 0 24.7-.2 28-1.7 29.2-1.1 1-5.1 1.4-14 1.5-10.9.1-12.5-.1-13.4-1.7-.5-1.1-.8-35.5-.7-90.6l.3-88.8h29l.5 3.9c.6 4.3 2 5.5 4 3.1.7-.8 2.1-1.5 3.1-1.5s2-.4 2.4-.9c1-1.6 11.7-4.5 19-5 9.3-.8 21.9.2 27.8 2.2zm181.2-1.9c1.3.5 1.5 8.9 1.5 64.9 0 48.7-.3 64.6-1.2 65.5-.8.8-5.4 1.2-14 1.2h-12.8l-1-2.6c-.6-1.4-.8-2.9-.5-3.4.3-.4.2-1.5-.1-2.3-.6-1.8-1.4-1.6-10.2 2.4-3.4 1.6-6.9 2.9-7.7 2.9s-4 .7-7.2 1.5c-7.3 1.9-15.3 1.9-22.6 0-3.2-.8-6.4-1.5-7.2-1.5-1.3 0-12.7-5.3-18.2-8.4-6.4-3.6-18.8-17.8-22.4-25.6-9.2-19.8-9.2-39.5.1-59.5 1.6-3.5 9.4-14 12.5-17 8.4-8.1 15.9-12.6 27.7-16.6 8-2.7 28.7-2.7 37.3 0 7.6 2.4 11.5 4.1 13.7 5.9 2.9 2.4 5 .8 4.2-3.3-.5-2.9-.3-3.6 1.4-4.2 2.3-.9 24.4-.8 26.7.1zm38.8-.5c.4.1.7 2.1.7 4.6 0 3.8.3 4.5 1.9 4.5 1.1 0 2.2-.4 2.5-.9.8-1.2 7.5-4.2 14.2-6.4 7.2-2.4 28.9-2.4 35.9 0 12.5 4.1 21.5 9.5 29.3 17.5 4.8 4.9 12.2 15.7 12.2 17.8 0 2.6 2.1 1.5 3.9-2.1 8-15.2 22.9-27.4 40.7-33.2 7.2-2.4 28.9-2.4 35.9-.1 17.6 5.9 33.8 19 40.5 32.9 3.7 7.7 4.1 7.5-14.5 7.5-9.1 0-16.5-.4-16.5-.8 0-1.2-8.6-7.3-13.5-9.6-6-2.8-22.3-2.7-28.6.3-6.9 3.1-14.1 10.1-17.8 17.2-3.1 5.9-3.3 7.1-3.4 15.9 0 8.7.3 10.1 3.2 16 4.2 8.4 8.8 13.1 17 17.1 5.2 2.6 8.2 3.4 13.8 3.7 10.6.6 17.9-2.2 27.6-10.6l3.8-3.3 15.2.3c14.6.3 15.2.4 15.5 2.4.7 4.8-11.3 21-20.6 27.7-11.5 8.3-27.3 13.7-39.9 13.7-7.3 0-25.4-4.7-29.4-7.5-.8-.6-3-1.9-4.9-2.9-8.9-4.9-21.1-18.2-24.5-26.6-.4-.8-1.2-2.9-1.9-4.5-3.7-8.8-4.6-13.5-4.6-25.4 0-8.7.4-13.2 1.6-16.1 2.8-6.8 2.4-7-14.7-7h-15.1l-4.6-4c-7.5-6.7-12.1-8.3-23.7-8.3-8.9-.1-10.6.2-15.2 2.6-6.5 3.4-11.8 7.9-15.1 13.2-5.6 8.6-5.6 8.3-6.2 48.5l-.5 37.5-13.6.3c-10.7.2-13.9 0-14.8-1.1-.8-1.1-1-18.3-.9-65.8l.3-64.3 2.3-.6c1.7-.4 20.7-.4 26.5-.1zm-358.9 1.8c12.1 3.9 24.2 11.6 31.2 19.7 5.7 6.6 10.2 14 10.6 17.2l.3 2.9-15.8.3-15.8.3-5.2-4.6c-2.8-2.5-5.8-4.5-6.5-4.5s-2.4-.8-3.8-1.7c-4-2.5-20.5-2.5-26.4.2-7.1 3.1-16.9 11.1-17 13.9 0 .5-.7 1.8-1.6 2.8-1.4 1.4-1.4 1.9-.3 2.3.8.3 23 .6 49.4.7l48 .3.3 12.5c.3 12.5-.5 17.5-4.4 26.5-.7 1.6-1.5 3.7-1.9 4.5-2.1 5.4-9.7 15.1-15.7 20.2-9.5 8-16.4 11.4-30.1 14.9-9.6 2.3-15.9 2.4-25.7.3-20.1-4.4-37-16.9-45.9-33.8-3.8-7.4-3.5-7.6 14.3-7.6 15.5 0 15.5 0 18.8 2.7 9.5 8 16.8 10.7 27.1 10.1 9.8-.5 18.9-5 25.8-12.7 2.7-3.1 4.8-6.2 4.7-6.9-.3-1.1-8.7-1.3-47.5-1.2l-47.2.1-1.7-2.6c-3.8-5.8-2.6-25 2.2-36 4.3-9.9 5.8-12.6 10.2-18 8.2-10.3 19.4-17.9 33.2-22.8 6.5-2.3 29.4-2.3 36.4 0zm661 0c22.4 7.3 36.8 21.6 45.3 44.8 2.6 7.2 2.5 30.8-.1 38-4.2 11.4-12.1 24-18.8 30.1-2.9 2.6-11.7 8.4-12.7 8.4-.4 0-1.2.5-1.9 1.2-2.8 2.8-21.7 7.8-29.5 7.8-8.8 0-20.6-3-30.7-7.8-8.1-3.9-22.6-17-25.1-22.7-.5-1.1-1.9-3.5-3-5.4-3.3-5.6-5.6-13-7-22.4-2.1-15.2 1.7-31.7 10.4-44.9 4-6 16.4-18.3 20-19.9 1.2-.5 2.9-1.3 3.7-1.8 2.2-1.2 7.9-3.6 13-5.4 6.5-2.3 29.4-2.3 36.4 0zm-615.6 153.8c.1 6.6 0 13-.3 14.3l-.5 2.2-64.3-.2-64.2-.3-.3-12.9c-.1-7.2 0-13.6.2-14.3.4-1.1 12.6-1.3 64.8-1.1l64.3.3zm661.7 2v14h-617l-.3-12.9c-.1-7.2 0-13.6.2-14.3.4-1.1 56.1-1.3 308.8-1.1l308.3.3z"/><path d="m220.9 67c-6.1 1.1-15.3 6.6-18.7 11.2-.7.9-1.8 2.3-2.5 3s-2.4 3.3-3.7 5.8c-2.1 4-2.4 5.8-2.4 15.5 0 11.9.4 13.2 7.2 22.6 8.4 11.7 25.6 16.8 39.7 11.8 14.7-5.1 25.5-19.7 25.5-34.3 0-12.3-8.5-26.3-19.6-32.2-6.8-3.7-16.9-5-25.5-3.4zm136.6-.1c-8.6 1.7-19.8 10.3-23.6 18.2-2.5 5.1-4.9 13.7-4.9 17.4 0 3.4 2.5 12.9 4.1 15.5.5.8 1.3 2.4 1.8 3.5 2.6 5.6 11.4 12.6 19.6 15.4 16.8 5.9 34.9-1.5 44-18 2.7-5.1 2.9-6.1 2.9-16.4 0-9.8-.3-11.5-2.5-15.7-3.9-7.4-10.2-13.7-17.6-17.5-4.8-2.5-17-3.7-23.8-2.4zm388 0c-16.1 3.2-28.7 18.9-28.8 35.6 0 9 4 18.4 11.1 25.7 2.6 2.7 5.1 4.8 5.6 4.8s1.7.6 2.5 1.3c3.7 3 12.1 5 19.4 4.5 4-.3 8.1-.9 9.2-1.5 1.1-.5 3.7-1.8 5.9-2.9 5.2-2.5 12.6-10 15.3-15.5 6.9-14.1 4.8-29.2-5.7-41.1-5.7-6.5-14.2-10.6-23.2-11.2-4-.2-9.1-.1-11.3.3zm126.7-42.7c-.7.7-1.2 4.4-1.2 9.5 0 6.7.3 8.3 1.5 8.3.8 0 1.5-.9 1.5-2.1 0-1.1.5-2.9 1.1-4 1-1.9 1.3-1.7 4.1 2.5 1.6 2.5 3.4 4.6 3.9 4.6 1.5 0 1-3.2-.7-5.1-1.4-1.6-1.4-2 .6-4.7 2.8-3.7 2.1-7.4-1.5-9-3.3-1.5-7.8-1.5-9.3 0zm8.4 3.2c.7 3-.1 4.6-2.5 4.6-2.9 0-4.5-2.5-3.1-4.9 1.5-2.9 4.8-2.7 5.6.3z"/></g></svg>